<?xml version="1.0"?>
<svg width="24" height="24" xmlns="http://www.w3.org/2000/svg" xmlns:svg="http://www.w3.org/2000/svg">
 <title>Velog</title>
 <g class="layer">
  <title>Layer 1</title>
  <path d="m3,0c-1.66,0 -3,1.34 -3,3l0,18c0,1.66 1.34,3 3,3l18,0c1.66,0 3,-1.34 3,-3l0,-18c0,-1.66 -1.34,-3 -3,-3l-18,0zm6.88,6.25c0.63,0 1.01,0.3 1.13,0.9l1.46,8.3c0.47,-0.61 0.85,-1.13 1.15,-1.55c0.46,-0.66 0.89,-1.42 1.28,-2.27c0.4,-0.86 0.61,-1.62 0.61,-2.3c0,-0.4 -0.11,-0.72 -0.34,-0.96c-0.21,-0.26 -0.61,-0.58 -1.19,-0.97c0.6,-0.77 1.35,-1.15 2.25,-1.15c0.48,0 0.88,0.14 1.19,0.43c0.33,0.28 0.49,0.7 0.49,1.26c0,0.93 -0.39,2.09 -1.17,3.49c-0.76,1.38 -2.24,3.45 -4.43,6.23l-2.22,0.15l-1.71,-9.62l-2.25,0l0,-0.95c0.6,-0.2 1.3,-0.41 2.11,-0.63c0.81,-0.24 1.36,-0.36 1.64,-0.36z" fill="#20c997" id="svg_1"/>
 </g>
</svg>